<?xml version="1.0" encoding="UTF-8" standalone="no"?><!-- Created with Inkscape (http://www.inkscape.org/) -->

<svg xmlns:cc="http://creativecommons.org/ns#" xmlns:dc="http://purl.org/dc/elements/1.1/"
    xmlns:inkscape="http://www.inkscape.org/namespaces/inkscape"
    xmlns:rdf="http://www.w3.org/1999/02/22-rdf-syntax-ns#"
    xmlns:sodipodi="http://sodipodi.sourceforge.net/DTD/sodipodi-0.dtd" height="100" id="svg8"
    version="1.1" viewBox="0 0 26.458333 26.458334" width="100" xmlns="http://www.w3.org/2000/svg"
    inkscape:export-filename="/home/michal/dev/android/io/raw_assets/settings.png"
    inkscape:export-xdpi="192" inkscape:export-ydpi="192"
    inkscape:version="0.92.4 5da689c313, 2019-01-14" sodipodi:docname="settings.svg">
    <defs id="defs2" />
    <sodipodi:namedview bordercolor="#666666" borderopacity="1.0" id="base" pagecolor="#171717"
        showgrid="true" units="px" inkscape:current-layer="layer1" inkscape:cx="-17.629089"
        inkscape:cy="95.41079" inkscape:document-units="px" inkscape:pageopacity="0"
        inkscape:pageshadow="2" inkscape:window-height="1376" inkscape:window-maximized="1"
        inkscape:window-width="2560" inkscape:window-x="0" inkscape:window-y="27"
        inkscape:zoom="5.6">
        <inkscape:grid id="grid815" type="xygrid" />
    </sodipodi:namedview>
    <metadata id="metadata5">
        <rdf:RDF>
            <cc:Work rdf:about="">
                <dc:format>image/svg+xml</dc:format>
                <dc:type rdf:resource="http://purl.org/dc/dcmitype/StillImage" />
                <dc:title></dc:title>
            </cc:Work>
        </rdf:RDF>
    </metadata>
    <g id="layer1" transform="translate(0,-270.54165)" inkscape:groupmode="layer"
        inkscape:label="Layer 1">
        <path
            style="opacity:1;fill:#ffffff;fill-opacity:1;stroke:none;stroke-width:3.48591995;stroke-linecap:round;stroke-linejoin:miter;stroke-miterlimit:4;stroke-dasharray:none;stroke-opacity:1;paint-order:normal"
            d="m 16.464774,271.12379 a 3.4788562,3.4788562 0 0 1 -3.235607,2.2103 3.4788562,3.4788562 0 0 1 -3.2362879,-2.20419 13.072197,13.072197 0 0 0 -3.3769369,1.38271 3.4788556,3.4788556 0 0 1 0.3512831,1.51725 3.4788556,3.4788556 0 0 1 -3.4788562,3.47885 3.4788556,3.4788556 0 0 1 -1.5179228,-0.35332 13.072197,13.072197 0 0 0 -1.38882477,3.37898 3.4788557,3.4788557 0 0 1 2.21097627,3.23628 3.4788557,3.4788557 0 0 1 -2.2116557,3.23901 13.072197,13.072197 0 0 0 1.3983371,3.37082 3.4788557,3.4788557 0 0 1 1.5090899,-0.34788 3.4788557,3.4788557 0 0 1 3.4788562,3.47885 3.4788557,3.4788557 0 0 1 -0.3526419,1.51657 13.072197,13.072197 0 0 0 3.3789751,1.3895 3.4788558,3.4788558 0 0 1 3.2356085,-2.20962 3.4788558,3.4788558 0 0 1 3.239005,2.21098 13.072197,13.072197 0 0 0 3.370142,-1.39834 3.4788559,3.4788559 0 0 1 -0.347206,-1.50909 3.4788559,3.4788559 0 0 1 3.478856,-3.47885 3.4788559,3.4788559 0 0 1 1.516564,0.35264 13.072197,13.072197 0 0 0 1.389504,-3.3783 3.4788559,3.4788559 0 0 1 -2.210297,-3.23629 3.4788559,3.4788559 0 0 1 2.211656,-3.239 13.072197,13.072197 0 0 0 -1.398337,-3.37082 3.478856,3.478856 0 0 1 -1.50909,0.34788 3.478856,3.478856 0 0 1 -3.478856,-3.47885 3.478856,3.478856 0 0 1 0.352642,-1.51657 13.072197,13.072197 0 0 0 -3.378976,-1.3895 z m -3.235607,6.13692 a 6.5098327,6.5098327 0 0 1 6.509945,6.50994 6.5098327,6.5098327 0 0 1 -6.509945,6.50995 6.5098327,6.5098327 0 0 1 -6.5099462,-6.50995 6.5098327,6.5098327 0 0 1 6.5099462,-6.50994 z"
            id="path817" inkscape:connector-curvature="0" />
    </g>
</svg>
